<svg width="976" height="842" viewBox="0 0 976 842" fill="none" xmlns="http://www.w3.org/2000/svg">
<path opacity="0.2" d="M157.88 369.883C135.328 388.264 113.479 408.832 99.7521 434.78C79.564 472.93 79.8753 520.921 100.593 556.296C118.134 586.289 147.714 605.818 173.021 628.986C204.2 657.519 229.426 692.291 253.301 727.65C266.13 746.643 279.066 766.338 297.803 779.058C323.82 796.715 358.894 798.461 389.526 787.125C420.157 775.789 446.377 752.386 465.206 724.574C475.226 709.774 483.515 693.048 484.71 675.455C485.975 656.84 479.231 638.845 480.632 620.23C481.929 602.98 490.137 586.664 499.732 571.996C512.258 552.845 527.421 535.554 544.773 520.635C564.441 503.745 586.59 490.269 606.322 473.516C626.053 456.763 643.913 435.552 650.09 410.318C655.9 386.596 650.794 362.272 644.596 339.42C634.505 302.078 621.391 265.62 605.384 230.408C594.637 206.81 582.364 183.535 564.39 165.47C530.029 130.925 475.317 119.573 428.067 137.175C388.92 151.761 357.308 183.415 330.085 216.549C305.26 246.764 282.614 285.198 250.432 307.624C219.726 328.999 187.337 345.884 157.88 369.883Z" fill="#1B51E5"/>
<path opacity="0.2" d="M204.88 341.883C182.328 360.264 160.479 380.832 146.752 406.78C126.564 444.93 126.875 492.921 147.593 528.296C165.134 558.289 194.714 577.818 220.021 600.986C251.2 629.519 276.426 664.291 300.301 699.65C313.13 718.643 326.066 738.338 344.803 751.058C370.82 768.715 405.894 770.461 436.526 759.125C467.157 747.789 493.377 724.386 512.206 696.574C522.226 681.774 530.515 665.048 531.71 647.455C532.975 628.84 526.231 610.845 527.632 592.23C528.929 574.98 537.137 558.664 546.732 543.996C559.258 524.845 574.421 507.554 591.773 492.635C611.441 475.745 633.59 462.269 653.322 445.516C673.053 428.763 690.913 407.552 697.09 382.318C702.9 358.596 697.794 334.272 691.596 311.42C681.505 274.078 668.391 237.62 652.384 202.408C641.637 178.81 629.364 155.535 611.39 137.47C577.029 102.925 522.317 91.5729 475.067 109.175C435.92 123.761 404.308 155.415 377.085 188.549C352.26 218.764 329.614 257.198 297.432 279.624C266.726 300.999 234.337 317.884 204.88 341.883Z" fill="#1B51E5"/>
</svg>
