<svg width="697" height="1018" viewBox="0 0 697 1018" fill="none" xmlns="http://www.w3.org/2000/svg">
<path opacity="0.2" d="M158.48 447.197C135.928 465.578 114.08 486.146 100.352 512.095C80.1641 550.245 80.4753 598.235 101.193 633.61C118.734 663.603 148.315 683.133 173.621 706.301C204.8 734.833 230.026 769.605 253.901 804.965C266.73 823.957 279.666 843.653 298.403 856.373C324.42 874.03 359.494 875.776 390.126 864.44C420.757 853.103 446.977 829.701 465.806 801.888C475.826 787.088 484.115 770.362 485.31 752.769C486.575 734.154 479.831 716.16 481.232 697.545C482.529 680.295 490.738 663.979 500.332 649.311C512.858 630.159 528.021 612.868 545.373 597.949C565.041 581.059 587.19 567.584 606.922 550.831C626.653 534.077 644.513 512.867 650.69 487.632C656.5 463.91 651.394 439.587 645.196 416.734C635.105 379.392 621.991 342.935 605.984 307.722C595.237 284.124 582.964 260.85 564.99 242.785C530.629 208.24 475.917 196.887 428.667 214.49C389.52 229.075 357.908 260.73 330.685 293.864C305.86 324.079 283.215 362.513 251.032 384.939C220.326 406.314 187.937 423.198 158.48 447.197Z" fill="#1B51E5"/>
<path opacity="0.2" d="M906.69 668.228C942.944 645.413 978.563 619.275 1003.28 583.818C1039.63 531.689 1047.79 461.503 1023.86 406.092C1003.61 359.116 963.892 325.271 931.07 286.875C890.629 239.587 860.008 184.249 831.466 128.295C816.128 98.2394 800.761 67.1374 775.664 45.1881C740.815 14.7185 689.874 5.87556 643.078 16.9476C596.283 28.0196 553.766 57.5151 521.26 94.7811C503.963 114.612 488.848 137.567 483.943 163.062C478.754 190.038 485.379 217.544 479.991 244.495C475 269.47 460.076 291.841 443.424 311.555C421.681 337.295 396.42 359.843 368.386 378.533C336.615 399.686 301.829 415.406 269.989 436.349C238.149 457.291 208.244 485.084 194.688 520.852C181.941 554.476 185.037 590.937 189.992 625.443C198.036 681.822 210.655 737.451 227.726 791.78C239.195 828.192 252.952 864.405 275.974 894.028C319.986 950.673 397.898 977.076 470.103 959.829C529.926 945.536 581.801 904.948 627.528 861.411C669.228 821.71 709.218 769.607 760.271 742.608C808.978 716.879 859.337 698.015 906.69 668.228Z" fill="#1B51E5"/>
<path d="M386 679.78V704H393L391.645 678L386 679.78V679.78Z" fill="#AAABB0"/>
<path d="M286 675.78V700H293L291.646 674L286 675.78V675.78Z" fill="#AAABB0"/>
<rect x="394" y="637" width="9" height="42" rx="4.5" fill="#AAABB0"/>
<rect x="283" y="628" width="9" height="52" rx="4.5" fill="#AAABB0"/>
<path d="M415 384.63C415 384.63 423.727 380.962 425.036 384.63C426.345 388.299 427 420 427 420H418.705L415 384.63Z" fill="#AAABB0"/>
<path d="M319 384.63C319 384.63 310.272 380.962 308.963 384.63C307.654 388.299 307 420 307 420H315.29L319 384.63Z" fill="#AAABB0"/>
<path d="M320.333 352.672L319 380H325V352L320.333 352.672V352.672Z" fill="#AAABB0"/>
<path d="M315 421L316.744 382.421C316.744 382.421 316.091 373.872 336.773 376.503C357.456 379.133 418 384.393 418 384.393V421H315Z" fill="#33323D"/>
<path d="M398 621.732L394.713 679.883C394.713 679.883 346.504 706.26 288 681.18L293.259 620L398 621.732Z" fill="#33323D"/>
<path d="M352 391.171L353.091 429H421L417.057 379L352 391.171V391.171Z" fill="#444053"/>
<rect x="296" y="597" width="63" height="80" fill="#4C4981"/>
<path d="M336.025 629.445C336.025 629.445 345.248 622.227 346.783 624.412C348.318 626.597 341.302 636.007 338.442 634.912C335.583 633.816 336.025 629.445 336.025 629.445Z" fill="#FFB9B9"/>
<rect x="172" y="418" width="417" height="208" fill="#504F60"/>
<path d="M315.447 350.523C315.447 350.523 312.191 320.097 315.447 316.407C318.703 312.717 373.407 277.721 423.988 318.793C423.988 318.793 428.761 319.015 427.895 329.876C427.384 336.75 427.419 343.654 427.999 350.523C427.999 350.523 319.14 358.346 315.447 350.523Z" fill="#33323D"/>
<path opacity="0.1" d="M315.447 350.523C315.447 350.523 312.191 320.097 315.447 316.407C318.703 312.717 373.407 277.721 423.988 318.793C423.988 318.793 428.761 319.015 427.895 329.876C427.384 336.75 427.419 343.654 427.999 350.523C427.999 350.523 319.14 358.346 315.447 350.523Z" fill="black"/>
<path d="M315.447 355.523C315.447 355.523 312.191 325.097 315.447 321.407C318.703 317.717 373.407 282.721 423.988 323.793C423.988 323.793 428.761 324.015 427.895 334.876C427.384 341.75 427.419 348.654 427.999 355.523C427.999 355.523 319.14 363.346 315.447 355.523Z" fill="#33323D"/>
<path d="M430.364 341C430.364 341 433.885 354.089 432.788 356.268C431.692 358.447 431.89 364.559 431.89 364.559C431.89 364.559 432.128 368.486 430.364 368.918C428.6 369.35 427.06 369.572 428.487 370.881C429.914 372.19 428.487 374.153 428.487 374.153C428.487 374.153 427.714 377.21 428.487 379.173C429.26 381.136 423.969 381.954 424.418 384.408C424.867 386.862 426.347 393.786 424.418 394.009C422.489 394.231 425.078 402.732 423.341 402.732C421.603 402.732 420.368 418 420.368 418C420.368 418 408.146 407.752 400 410.585C400 410.585 400.661 402.078 403.303 399.022C405.946 395.965 405.146 388.119 405.146 388.119L418.254 349.069L430.364 341Z" fill="#4C4981"/>
<path d="M365.453 520.615C362.684 523.703 359.697 507.213 359.697 507.213C359.697 507.213 351.812 518.172 346.696 510.868C343.153 505.807 345.947 491.471 347.975 483.148C348.883 479.448 349.65 476.934 349.65 476.934L361.162 475C361.162 475 361.2 477.527 361.456 480.595C361.801 484.741 362.549 489.885 364.142 491.116C366.949 493.25 368.228 517.501 365.453 520.615Z" fill="#AE6E79"/>
<path opacity="0.1" d="M358.796 326.063C358.796 326.063 338.313 325.848 333.306 336.673C328.3 347.498 328.078 351.189 326.117 352.917C324.156 354.646 347.463 363.749 347.463 363.749L348.555 401C348.555 401 353.13 396.393 360.535 398.479C367.94 400.565 377.312 398.479 377.312 398.479C377.312 398.479 376.874 397.693 382.979 398.479C389.083 399.265 408.468 389.09 408.468 389.09C408.468 389.09 408.789 372.794 408.357 369.324C407.926 365.854 422.187 340.358 422.187 340.358C422.187 340.358 433.298 329.747 421.756 326.063C421.756 326.063 417.671 319.942 407.161 320C396.652 320.059 358.796 326.063 358.796 326.063Z" fill="black"/>
<path d="M359.761 325.063C359.761 325.063 339.3 324.848 334.299 335.673C329.298 346.498 329.076 350.189 327.117 351.917C325.158 353.646 348.44 362.749 348.44 362.749L349.53 400C349.53 400 354.101 395.393 361.498 397.479C368.895 399.565 378.257 397.479 378.257 397.479C378.257 397.479 377.82 396.693 383.918 397.479C390.016 398.265 409.38 388.09 409.38 388.09C409.38 388.09 416.993 375.744 416.562 372.281C416.131 368.818 431.794 342.606 431.794 342.606C431.794 342.606 434.19 328.747 422.653 325.063C422.653 325.063 418.573 318.942 408.074 319C397.576 319.059 359.761 325.063 359.761 325.063Z" fill="#4C4981"/>
<path opacity="0.1" d="M361 480.468C356.763 479.114 350.115 482.101 348 483C348.876 479.367 349.616 476.899 349.616 476.899L360.716 475C360.716 475 360.735 477.481 361 480.468Z" fill="black"/>
<path d="M333.885 352H327.58C327.58 352 326.275 365.298 327.58 369.221C328.886 373.144 329.538 372.575 329.101 375.478C328.664 378.38 332.149 382.826 332.149 382.826C332.149 382.826 332.58 393.784 334.76 397.863C336.94 401.943 332.365 420.236 332.365 420.236C333.612 423.394 335.459 426.28 337.802 428.735C341.502 432.436 343.461 446.165 342.371 451.396C341.281 456.626 345.419 458.587 345.419 458.587C345.419 458.587 347.161 483 347.814 483C348.467 483 361.084 476.462 365 482.124L361.952 459.679L362.174 416.313C362.174 416.313 358.036 410.861 360.216 406.069C362.396 401.276 358.473 389.939 358.473 389.939L352.814 364.664L333.885 352Z" fill="#4C4981"/>
<path d="M293.608 695.872C293.608 695.872 284.471 693.91 284.255 695.872C284.04 697.833 273.375 717.886 286.651 723.771C299.927 729.655 335.382 742.293 393.042 725.948C393.042 725.948 396.736 727.255 395.868 719.194C395 711.132 395 702.194 395 702.194C395 702.194 386.293 699.795 379.766 700.671C373.239 701.547 316.453 713.094 293.608 695.872Z" fill="#33323D"/>
<path opacity="0.1" d="M293.608 695.872C293.608 695.872 284.471 693.91 284.255 695.872C284.04 697.833 273.375 717.886 286.651 723.771C299.927 729.655 335.382 742.293 393.042 725.948C393.042 725.948 396.736 727.255 395.868 719.194C395 711.132 395 702.194 395 702.194C395 702.194 386.293 699.795 379.766 700.671C373.239 701.547 316.453 713.094 293.608 695.872Z" fill="black"/>
<path d="M293.608 692.872C293.608 692.872 284.471 690.91 284.255 692.872C284.04 694.833 273.375 714.886 286.651 720.771C299.927 726.655 335.382 739.293 393.042 722.948C393.042 722.948 396.736 724.255 395.868 716.194C395 708.132 395 699.194 395 699.194C395 699.194 386.293 696.795 379.766 697.671C373.239 698.547 316.453 710.094 293.608 692.872Z" fill="#33323D"/>
<path d="M347.049 360.298C346.488 363.47 345.216 366.519 345.02 369.73C344.824 372.942 346.071 376.594 349.053 377.853C349.885 378.1 350.691 378.426 351.461 378.826C352.61 379.598 353.08 381.051 353.321 382.414C353.641 384.173 353.718 385.967 353.549 387.746C353.386 389.537 353.001 391.464 353.889 393.027C355.448 395.797 359.514 395.389 362.608 394.61L361.544 402.804C361.459 403.453 361.407 404.186 361.883 404.627C362.338 404.945 362.903 405.067 363.449 404.964C366.138 404.796 368.905 404.426 371.209 403.018C373.513 401.61 375.229 398.989 374.792 396.349C374.283 393.287 371.098 390.854 371.529 387.779C371.862 385.398 374.204 383.886 375.745 382.057C378.531 378.709 378.681 373.623 376.495 369.834C374.309 366.046 370.086 363.697 365.74 363.269C363.332 363.029 360.826 363.321 358.561 362.49C356.964 361.908 355.733 360.617 355.233 359" fill="#444053"/>
<path d="M272 649.902L274.255 644.805C274.255 644.805 286.429 633.035 289.227 632.21C292.025 631.385 303.443 627.791 305.168 627.791C306.893 627.791 338.343 626 338.343 626L342 634.947L302.532 643.94L289.227 654L272 649.902Z" fill="#767D9F"/>
<path d="M368 516.463L365.908 532.514L365.101 538.692L355.703 540C355.703 540 354.687 537.829 353.25 534.495C348.889 524.374 340.678 503.504 345.439 499.902C351.768 495.103 353.309 511.017 353.309 511.017L360.524 507.525L368 516.463Z" fill="#FFB9B9"/>
<rect x="319" y="546" width="47" height="71" fill="white"/>
<rect opacity="0.1" x="319" y="546" width="47" height="71" fill="black"/>
<path d="M340.155 543.09L386.864 549.993L376.432 620.529L329.723 613.626L340.155 543.09Z" fill="white"/>
<path d="M344.552 549.817L368.594 553.37L363.225 589.674L339.183 586.12L344.552 549.817Z" fill="#1B51E5"/>
<path d="M336.605 596.452L365.733 600.756L364.567 608.64L335.439 604.336L336.605 596.452Z" fill="#1B51E5"/>
<path opacity="0.1" d="M378 366C392.912 366 405 353.912 405 339C405 324.088 392.912 312 378 312C363.088 312 351 324.088 351 339C351 353.912 363.088 366 378 366Z" fill="black"/>
<path d="M378 365C392.912 365 405 352.912 405 338C405 323.088 392.912 311 378 311C363.088 311 351 323.088 351 338C351 352.912 363.088 365 378 365Z" fill="#AE6E79"/>
<path d="M355.665 358.753C355.478 358.045 355.546 357.295 355.856 356.632C356.904 354.459 359.887 354.269 362.304 354.38C367.988 354.643 374.225 354.676 378.671 351.097C380.515 349.627 382.577 345.931 385.257 346.633C387.641 347.257 388.636 350.48 391.119 351.196C392.917 351.715 394.781 350.887 396.612 350.539C399.246 350.021 401.947 350.454 404.621 350.474C407.295 350.493 410.199 349.988 412.023 348.038C414.487 345.412 414.085 341.309 413.868 337.711C413.597 333.063 413.914 328.401 414.809 323.832C415.705 319.289 417.082 314.207 414.566 310.314C412.168 306.605 407.202 305.587 403.81 302.744C400.636 300.118 398.956 295.91 395.604 293.474C391.382 290.408 385.646 290.848 380.456 291.38L369.193 292.575C366.289 292.883 363.266 293.231 360.875 294.958C356.561 298.07 355.968 304.536 351.885 307.944C350.067 309.454 347.742 310.202 345.668 311.332C343.593 312.461 341.591 314.247 341.354 316.584C341.156 318.553 342.223 320.372 342.743 322.269C343.975 326.799 342.052 331.461 340.82 336.024C339.589 340.586 339.351 346.128 342.928 349.154C343.652 349.771 344.495 350.244 345.2 350.887C347.617 353.087 347.946 356.796 347.387 360" fill="#444053"/>
<path d="M380.5 372C380.776 372 381 371.105 381 370C381 368.895 380.776 368 380.5 368C380.224 368 380 368.895 380 370C380 371.105 380.224 372 380.5 372Z" fill="#444053"/>
<path d="M380.5 380C380.776 380 381 379.105 381 378C381 376.895 380.776 376 380.5 376C380.224 376 380 376.895 380 378C380 379.105 380.224 380 380.5 380Z" fill="#444053"/>
<path d="M366.53 521.554C367.248 520.737 367.725 518.638 368 515.869L360 506C360 506 363.389 525.133 366.53 521.554Z" fill="#AE6E79"/>
<path opacity="0.1" d="M375.076 681.336C375.076 681.336 362.268 700.943 322.251 698.842C284.553 696.897 266.152 678.529 267.03 672.045C267.907 665.562 264.627 649.78 272.701 645.242C277.383 642.616 283.545 644.172 287.893 645.948C290.959 647.181 294.467 646.558 296.91 644.347C300.884 640.8 308.297 636.806 319.999 639.951C321.504 640.348 323.093 640.319 324.582 639.866C329.454 638.395 341.051 635.84 349.466 641.513C352.18 643.366 355.732 643.5 358.581 641.857L358.699 641.786C362.628 639.406 380.963 661.885 380.963 661.885C380.963 661.885 381.84 679.177 375.076 681.336Z" fill="black"/>
<path d="M375.076 682.336C375.076 682.336 362.268 701.943 322.251 699.842C284.553 697.897 266.152 679.529 267.03 673.045C267.907 666.562 264.627 650.78 272.701 646.242C277.383 643.616 283.545 645.172 287.893 646.948C290.959 648.181 294.467 647.558 296.91 645.347C300.884 641.8 308.297 637.806 319.999 640.951C321.504 641.348 323.093 641.319 324.582 640.866C329.454 639.395 341.051 636.84 349.466 642.513C352.18 644.366 355.732 644.5 358.581 642.857L358.699 642.786C362.628 640.406 380.963 662.885 380.963 662.885C380.963 662.885 381.84 680.177 375.076 682.336Z" fill="#767D9F"/>
<path opacity="0.1" d="M322 689C336.359 689 348 677.359 348 663C348 648.641 336.359 637 322 637C307.641 637 296 648.641 296 663C296 677.359 307.641 689 322 689Z" fill="black"/>
<path d="M322 690C336.359 690 348 678.359 348 664C348 649.641 336.359 638 322 638C307.641 638 296 649.641 296 664C296 678.359 307.641 690 322 690Z" fill="#FFB9B9"/>
<path d="M314.679 641.616C311.921 642.354 309.203 643.764 307.857 646.081C307.045 647.478 306.762 649.155 305.587 650.317C303.925 651.969 301.121 652.001 298.871 652.928C296.621 653.855 295.137 657.119 297.34 658.15C295.044 658.268 293.342 660.363 293.059 662.445C292.775 664.527 293.573 666.603 294.345 668.588C296.865 675.011 299.577 681.714 305.132 686.283C314.184 693.738 327.827 693.392 339.987 692.602C340.98 692.635 341.965 692.41 342.843 691.949C344.163 691.088 344.328 689.436 344.545 687.987C345.463 681.799 348.854 676.179 351.07 670.272C353.287 664.364 354.198 657.426 350.463 652.197C344.968 644.443 323.928 639.136 314.679 641.616Z" fill="#B96B6B"/>
<path opacity="0.1" d="M365 532.367L364.235 538.667L355.325 540C355.325 540 354.362 537.787 353 534.387L364.857 532L365 532.367Z" fill="black"/>
<path d="M374.648 669L379.989 662.688L378.92 627.875C379.445 625.363 379.803 622.818 379.989 620.257C380.2 616.556 377.319 608.292 377.319 608.292C377.766 606.637 378.373 605.032 379.131 603.5C380.412 600.889 377.325 595.014 377.325 595.014C377.325 595.014 372.727 579.785 374.648 572.167C376.569 564.549 374.181 560.201 374.181 560.201C374.181 560.201 372.305 551.715 372.516 548.236C372.727 544.757 368.245 541.486 368.245 541.486L364.832 533L351.174 535.611V564.986C351.174 564.986 352.025 593.056 351.174 598.5C350.322 603.944 352.877 609.16 352.877 609.16C352.877 609.16 351.385 617.209 352.666 620.257C353.946 623.305 356.508 630.701 356.508 630.701C356.032 633.345 356.179 636.065 356.937 638.639C358.217 642.451 356.937 644.625 356.937 644.625L374.648 669Z" fill="#767D9F"/>
<g opacity="0.1">
<path d="M414.421 322.406C413.682 326.169 413.351 329.998 413.432 333.829C413.488 330.643 413.828 327.469 414.447 324.341C415.024 321.486 415.758 318.414 415.6 315.566C415.359 317.868 414.965 320.153 414.421 322.406V322.406Z" fill="black"/>
<path d="M345.176 348.943C344.475 348.3 343.636 347.85 342.915 347.239C341.002 345.639 340.197 343.318 340.039 340.811C339.849 344.025 340.518 347.136 342.915 349.168C343.636 349.779 344.475 350.241 345.176 350.871C346.641 352.294 347.491 354.217 347.548 356.239C347.738 353.539 347.181 350.73 345.176 348.943Z" fill="black"/>
<path d="M343.086 324.939C343.2 323.581 343.081 322.214 342.732 320.895C342.352 319.519 341.671 318.176 341.422 316.794C341.422 316.941 341.369 317.096 341.35 317.256C341.16 319.185 342.221 320.966 342.732 322.824C342.92 323.516 343.039 324.224 343.086 324.939V324.939Z" fill="black"/>
<path d="M411.65 346.108C409.835 348.036 406.945 348.512 404.285 348.493C401.625 348.474 398.933 348.049 396.319 348.564C394.497 348.924 392.643 349.727 390.854 349.206C388.384 348.506 387.395 345.349 385.03 344.739C382.337 344.044 380.287 347.664 378.478 349.104C374.056 352.575 367.851 352.543 362.197 352.318C359.793 352.209 356.825 352.395 355.79 354.529C355.474 355.176 355.406 355.914 355.6 356.606L347.593 357.84C347.563 358.487 347.491 359.131 347.377 359.769L355.6 358.483C355.406 357.791 355.474 357.054 355.79 356.406C356.825 354.272 359.793 354.086 362.197 354.195C367.851 354.452 374.056 354.484 378.478 350.981C380.313 349.541 382.363 345.921 385.03 346.616C387.395 347.22 388.384 350.383 390.854 351.084C392.643 351.585 394.497 350.781 396.319 350.441C398.939 349.926 401.625 350.351 404.285 350.37C406.945 350.389 409.835 349.894 411.65 347.985C413.464 346.076 413.727 343.228 413.615 340.451C413.537 342.604 413.084 344.597 411.65 346.108Z" fill="black"/>
</g>
<g opacity="0.1">
<path d="M350.688 376.221C349.926 375.811 349.126 375.479 348.3 375.23C346.896 374.579 345.781 373.415 345.175 371.968C345.66 374.246 346.889 376.32 348.947 377.211C349.773 377.461 350.573 377.792 351.335 378.202C351.822 378.553 352.216 379.023 352.48 379.569C352.221 378.275 351.749 376.954 350.688 376.221Z" fill="black"/>
<path d="M361.739 392.288C358.756 393.06 354.861 393.463 353.224 390.881C353.275 391.503 353.451 392.108 353.742 392.658C355.139 395.2 358.556 395.114 361.461 394.487L361.739 392.288Z" fill="black"/>
<path d="M373.826 394.097C374.241 396.778 372.532 399.453 370.268 400.859C368.003 402.266 365.24 402.656 362.574 402.841C362.15 402.897 361.72 402.847 361.319 402.695C361.07 403.266 361.176 403.932 361.589 404.393C362.001 404.854 362.642 405.022 363.221 404.822C365.887 404.65 368.631 404.274 370.915 402.841C373.199 401.408 374.907 398.74 374.467 396.052C374.343 395.373 374.127 394.716 373.826 394.097V394.097Z" fill="black"/>
<path d="M376.699 370.192C377.5 373.445 376.783 376.894 374.758 379.536C373.231 381.425 370.908 382.937 370.578 385.36C370.468 386.475 370.694 387.597 371.225 388.576C371.167 388.167 371.167 387.751 371.225 387.342C371.555 384.918 373.878 383.379 375.405 381.517C377.916 378.42 378.265 373.857 376.699 370.192Z" fill="black"/>
</g>
<g opacity="0.1">
<path d="M299.443 653.686C301.661 652.772 304.433 652.739 306.083 651.092C307.243 649.937 307.524 648.27 308.326 646.889C309.63 644.579 312.337 643.185 315.063 642.452C324.193 639.987 345.011 645.254 350.437 652.889C352.027 655.198 352.894 657.925 352.928 660.724C353.137 657.493 352.263 654.283 350.443 651.598C345.017 643.963 324.22 638.696 315.07 641.161C312.343 641.894 309.656 643.289 308.333 645.598C307.53 646.979 307.25 648.646 306.089 649.801C304.439 651.442 301.667 651.475 299.45 652.396C297.761 653.09 296.509 655.139 296.965 656.515C297.333 655.256 298.24 654.221 299.443 653.686V653.686Z" fill="black"/>
<path d="M293.704 663.111C293.978 661.036 295.661 658.96 297.937 658.843C297.453 658.643 297.086 658.235 296.939 657.734C295.175 658.386 293.919 659.957 293.678 661.814C293.616 662.342 293.616 662.875 293.678 663.403C293.704 663.306 293.704 663.209 293.704 663.111Z" fill="black"/>
</g>
<rect x="372" y="428" width="60" height="77" fill="white"/>
<rect opacity="0.1" x="372" y="428" width="60" height="77" fill="black"/>
<path d="M395.469 441.758L453.981 431.697L467.106 507.97L408.594 518.031L395.469 441.758Z" fill="white"/>
<path d="M409.65 493.753L423.398 491.39L426.481 509.309L412.734 511.673L409.65 493.753Z" fill="#1B51E5"/>
<path d="M428.673 490.479L442.421 488.115L445.504 506.035L431.757 508.398L428.673 490.479Z" fill="#1B51E5"/>
<path d="M407.653 470.137L455.863 461.862L458.956 479.862L410.745 488.138L407.653 470.137Z" fill="#1B51E5"/>
<path d="M403.634 448.653L451.845 440.378L452.535 444.394L404.324 452.669L403.634 448.653Z" fill="#1B51E5"/>
<path d="M405.215 456.04L453.426 447.765L454.116 451.781L405.905 460.056L405.215 456.04Z" fill="#1B51E5"/>
<path d="M405.052 406C405.052 406 378.365 433.86 391.763 440.938C405.16 448.016 413.882 417.39 413.882 417.39L416 410.425L405.052 406Z" fill="#AE6E79"/>
<path opacity="0.1" d="M403.354 403.992L400 411.539C400 411.539 416.542 413.905 420 419L417.95 405.684L415.517 400L403.354 403.992Z" fill="black"/>
<path d="M403.354 402.992L400 410.539C400 410.539 416.542 412.905 420 418L417.95 404.684L415.517 399L403.354 402.992Z" fill="#4C4981"/>
<path d="M504.327 540.14L504 540.52L504.452 540.86L504.94 540.79L505 540.22L504.327 540.14V540.14Z" fill="#464A5F"/>
<path opacity="0.1" d="M504.327 540.14L504 540.52L504.452 540.86L504.94 540.79L505 540.22L504.327 540.14V540.14Z" fill="black"/>
<path d="M505 540.66L504.44 541L504 540.491L504.27 540.075L504.52 540L505 540.66V540.66Z" fill="#9C9CA1"/>
<path opacity="0.1" d="M505 540.66L504.44 541L504 540.491L504.27 540.075L504.52 540L505 540.66V540.66Z" fill="black"/>
<path d="M568 494.99L541.307 456.379C540.829 455.683 540.095 455.206 539.266 455.053C538.436 454.9 537.58 455.083 536.886 455.563L477.384 496.466C475.935 497.462 475.564 499.446 476.556 500.899L503.177 540L568 494.99Z" fill="#9C9CA1"/>
<path opacity="0.1" d="M568 494.99L541.307 456.379C540.829 455.683 540.095 455.206 539.266 455.053C538.436 454.9 537.58 455.083 536.886 455.563L477.384 496.466C475.935 497.462 475.564 499.446 476.556 500.899L503.177 540L568 494.99Z" fill="black"/>
<path d="M569 494.969L542.307 456.379C541.829 455.683 541.093 455.206 540.263 455.053C539.432 454.9 538.575 455.083 537.88 455.563L478.386 496.47C476.938 497.466 476.565 499.446 477.551 500.901L504.172 540L569 494.969Z" fill="#9C9CA1"/>
<path d="M591.487 502.191L569.451 495L505 540.39L527.387 547.831C528.403 548.167 529.515 547.996 530.388 547.371L591.669 503.409C591.904 503.275 592.033 503.007 591.993 502.736C591.952 502.465 591.751 502.248 591.487 502.191Z" fill="#464A5F"/>
<path opacity="0.1" d="M591.487 502.191L569.451 495L505 540.39L527.387 547.831C528.403 548.167 529.515 547.996 530.388 547.371L591.669 503.409C591.904 503.275 592.033 503.007 591.993 502.736C591.952 502.465 591.751 502.248 591.487 502.191Z" fill="black"/>
<path d="M591.503 502.199L569.463 495L505 540.398L527.391 547.827C528.406 548.168 529.52 547.999 530.392 547.372L591.685 503.404C591.911 503.266 592.032 503.004 591.993 502.739C591.953 502.475 591.759 502.261 591.503 502.199Z" fill="#464A5F"/>
<g opacity="0.1">
<path d="M558.447 493.688L556.816 491.346C556.612 491.064 556.223 490.992 555.932 491.183L553.507 492.803C553.225 493.003 553.148 493.389 553.332 493.681L554.833 495.991C555.029 496.278 555.415 496.361 555.711 496.18L558.265 494.573C558.554 494.375 558.635 493.984 558.447 493.688V493.688Z" fill="black"/>
<path d="M554.092 496.707L552.454 494.371C552.251 494.089 551.861 494.017 551.57 494.208L549.152 495.841C548.868 496.039 548.788 496.425 548.97 496.72L550.472 499.029C550.665 499.319 551.052 499.405 551.349 499.225L553.91 497.618C554.057 497.522 554.158 497.372 554.192 497.2C554.227 497.029 554.191 496.851 554.092 496.707Z" fill="black"/>
<path d="M549.516 499.875L547.878 497.539C547.675 497.257 547.285 497.186 546.994 497.377L544.57 499.01C544.284 499.21 544.206 499.6 544.394 499.895L545.896 502.204C546.091 502.492 546.478 502.575 546.773 502.393L549.328 500.786C549.475 500.692 549.578 500.542 549.614 500.37C549.649 500.199 549.614 500.02 549.516 499.875Z" fill="black"/>
<path d="M544.882 503.089L543.244 500.747C543.041 500.469 542.656 500.397 542.366 500.584L539.942 502.224C539.659 502.423 539.582 502.809 539.766 503.102L541.268 505.412C541.461 505.698 541.843 505.783 542.139 505.607L544.7 503.993C544.844 503.898 544.945 503.749 544.979 503.579C545.013 503.409 544.978 503.233 544.882 503.089Z" fill="black"/>
<path d="M540.254 506.297L538.616 503.961C538.412 503.679 538.023 503.607 537.732 503.798L535.314 505.431C535.029 505.629 534.949 506.015 535.132 506.31L536.633 508.619C536.827 508.909 537.213 508.995 537.511 508.814L540.072 507.201C540.216 507.105 540.317 506.956 540.351 506.787C540.385 506.617 540.35 506.441 540.254 506.297Z" fill="black"/>
<path d="M535.827 509.797L533.793 506.895C533.749 506.83 533.681 506.785 533.605 506.77C533.528 506.756 533.448 506.772 533.383 506.817L530.406 508.827C530.34 508.87 530.294 508.937 530.278 509.015C530.262 509.092 530.278 509.172 530.322 509.237L532.187 512.106C532.276 512.244 532.458 512.284 532.597 512.198L535.743 510.246C535.819 510.202 535.873 510.127 535.889 510.041C535.905 509.954 535.883 509.865 535.827 509.797Z" fill="black"/>
<path d="M531.199 513.004L529.152 510.103C529.107 510.037 529.038 509.992 528.96 509.977C528.882 509.963 528.801 509.98 528.736 510.025L525.759 512.035C525.626 512.128 525.592 512.31 525.681 512.445L527.546 515.314C527.587 515.383 527.654 515.432 527.731 515.449C527.809 515.466 527.89 515.45 527.956 515.405L531.095 513.453C531.177 513.415 531.236 513.342 531.257 513.254C531.277 513.166 531.256 513.074 531.199 513.004V513.004Z" fill="black"/>
<path d="M527.098 515.847L525.063 512.972C524.969 512.841 524.787 512.81 524.654 512.9L521.677 514.904C521.541 514.997 521.504 515.182 521.592 515.32L523.458 518.19C523.549 518.324 523.728 518.364 523.867 518.281L527.013 516.329C527.101 516.287 527.163 516.206 527.18 516.11C527.197 516.014 527.166 515.916 527.098 515.847V515.847Z" fill="black"/>
<path d="M522.509 519.022L520.474 516.121C520.38 515.99 520.198 515.959 520.065 516.049L517.088 518.053C517.021 518.097 516.975 518.165 516.959 518.244C516.943 518.322 516.959 518.403 517.003 518.469L518.869 521.339C518.96 521.473 519.139 521.513 519.278 521.43L522.424 519.478C522.501 519.433 522.555 519.357 522.571 519.269C522.587 519.182 522.565 519.092 522.509 519.022V519.022Z" fill="black"/>
<path d="M518.063 522.08L516.028 519.179C515.985 519.113 515.917 519.068 515.84 519.054C515.763 519.039 515.683 519.056 515.619 519.1L512.642 521.111C512.576 521.153 512.53 521.221 512.514 521.298C512.498 521.375 512.514 521.455 512.557 521.521L514.423 524.39C514.512 524.527 514.694 524.568 514.832 524.481L517.978 522.529C518.055 522.486 518.108 522.411 518.125 522.324C518.141 522.238 518.118 522.149 518.063 522.08Z" fill="black"/>
<path d="M513.617 525.19L511.602 522.282C511.507 522.151 511.326 522.12 511.192 522.21L508.215 524.214C508.149 524.258 508.102 524.327 508.087 524.405C508.071 524.483 508.087 524.564 508.131 524.631L509.996 527.5C510.087 527.634 510.267 527.674 510.406 527.591L513.552 525.639C513.625 525.592 513.675 525.516 513.687 525.429C513.7 525.343 513.674 525.256 513.617 525.19V525.19Z" fill="black"/>
<path d="M509.171 528.267L507.136 525.366C507.093 525.301 507.025 525.256 506.948 525.241C506.871 525.226 506.791 525.243 506.727 525.288L503.75 527.285C503.684 527.328 503.637 527.395 503.622 527.472C503.606 527.549 503.621 527.63 503.665 527.695L505.531 530.564C505.62 530.701 505.802 530.742 505.94 530.655L509.086 528.703C509.159 528.66 509.209 528.587 509.225 528.504C509.241 528.421 509.222 528.335 509.171 528.267Z" fill="black"/>
<path d="M555.522 489.453L553.884 487.11C553.681 486.828 553.291 486.756 553 486.948L550.602 488.587C550.317 488.785 550.237 489.171 550.42 489.466L551.921 491.775C552.117 492.063 552.503 492.146 552.799 491.964L555.36 490.357C555.654 490.152 555.727 489.747 555.522 489.453Z" fill="black"/>
<path d="M549.12 480.194L547.482 477.839C547.279 477.561 546.894 477.49 546.604 477.677L544.18 479.31C543.895 479.507 543.815 479.893 543.998 480.188L545.499 482.498C545.693 482.787 546.079 482.873 546.377 482.693L548.938 481.086C549.231 480.888 549.311 480.492 549.12 480.194Z" fill="black"/>
<path d="M551.161 492.471L549.523 490.136C549.32 489.857 548.935 489.786 548.645 489.973L546.221 491.606C545.938 491.805 545.861 492.191 546.045 492.484L547.54 494.794C547.734 495.084 548.12 495.17 548.418 494.989L550.979 493.382C551.125 493.287 551.227 493.136 551.261 492.965C551.295 492.794 551.259 492.616 551.161 492.471Z" fill="black"/>
<path d="M546.585 495.64L544.947 493.304C544.743 493.022 544.354 492.95 544.063 493.141L541.645 494.755C541.356 494.953 541.276 495.344 541.463 495.64L542.964 497.949C543.16 498.237 543.546 498.32 543.842 498.138L546.403 496.531C546.696 496.333 546.776 495.937 546.585 495.64Z" fill="black"/>
<path d="M541.95 498.854L540.319 496.512C540.115 496.229 539.726 496.158 539.435 496.349L537.01 498.008C536.728 498.207 536.651 498.593 536.835 498.886L538.336 501.196C538.532 501.483 538.918 501.566 539.214 501.385L541.768 499.778C541.918 499.682 542.023 499.529 542.057 499.355C542.091 499.18 542.053 498.999 541.95 498.854Z" fill="black"/>
<path d="M544.862 483.363L543.224 481.027C543.021 480.749 542.636 480.677 542.347 480.865L539.922 482.498C539.638 482.695 539.558 483.081 539.74 483.376L541.242 485.686C541.435 485.975 541.822 486.061 542.119 485.881L544.68 484.274C544.827 484.178 544.928 484.028 544.962 483.857C544.997 483.685 544.961 483.507 544.862 483.363Z" fill="black"/>
<path d="M540.286 486.538L538.648 484.196C538.445 483.913 538.055 483.842 537.764 484.033L535.346 485.646C535.062 485.844 534.982 486.23 535.164 486.525L536.666 488.834C536.861 489.122 537.248 489.205 537.543 489.023L540.104 487.416C540.389 487.219 540.469 486.832 540.286 486.538V486.538Z" fill="black"/>
<path d="M535.652 489.745L534.014 487.41C533.813 487.129 533.427 487.055 533.136 487.24L530.712 488.899C530.429 489.099 530.352 489.485 530.536 489.778L532.038 492.087C532.231 492.377 532.618 492.463 532.915 492.283L535.47 490.669C535.62 490.574 535.724 490.421 535.759 490.246C535.793 490.072 535.754 489.891 535.652 489.745Z" fill="black"/>
<path d="M537.322 502.061L535.684 499.726C535.483 499.445 535.098 499.371 534.807 499.556L532.402 501.196C532.119 501.395 532.042 501.781 532.226 502.074L533.702 504.384C533.895 504.67 534.277 504.755 534.573 504.579L537.134 502.966C537.279 502.871 537.381 502.722 537.416 502.553C537.452 502.383 537.418 502.206 537.322 502.061Z" fill="black"/>
<path d="M532.694 505.269L531.056 502.933C530.853 502.651 530.463 502.579 530.172 502.77L527.754 504.403C527.47 504.601 527.39 504.987 527.572 505.282L529.074 507.591C529.267 507.881 529.654 507.967 529.951 507.786L532.512 506.179C532.659 506.084 532.76 505.934 532.794 505.762C532.829 505.591 532.793 505.413 532.694 505.269Z" fill="black"/>
<path d="M528.268 508.769L526.233 505.867C526.19 505.802 526.122 505.757 526.045 505.742C525.968 505.728 525.888 505.745 525.824 505.789L522.847 507.799C522.781 507.842 522.735 507.91 522.719 507.987C522.703 508.064 522.719 508.144 522.762 508.209L524.628 511.079C524.669 511.146 524.736 511.194 524.814 511.211C524.891 511.228 524.971 511.213 525.037 511.17L528.183 509.218C528.26 509.174 528.313 509.099 528.33 509.013C528.346 508.926 528.323 508.837 528.268 508.769Z" fill="black"/>
<path d="M524.166 511.612L522.132 508.704C522.037 508.573 521.856 508.542 521.722 508.632L518.752 510.636C518.616 510.729 518.579 510.914 518.667 511.053L520.533 513.922C520.624 514.056 520.803 514.096 520.942 514.013L524.088 512.061C524.168 512.02 524.223 511.944 524.239 511.856C524.254 511.768 524.227 511.678 524.166 511.612V511.612Z" fill="black"/>
<path d="M519.577 514.787L517.543 511.885C517.448 511.755 517.267 511.723 517.133 511.814L514.156 513.818C514.09 513.86 514.044 513.928 514.028 514.005C514.012 514.082 514.028 514.162 514.072 514.227L515.937 517.103C516.028 517.237 516.208 517.277 516.347 517.194L519.493 515.242C519.57 515.198 519.623 515.122 519.639 515.034C519.656 514.947 519.633 514.856 519.577 514.787Z" fill="black"/>
<path d="M515.131 517.871L513.097 514.969C513.053 514.904 512.986 514.859 512.909 514.844C512.832 514.83 512.752 514.846 512.687 514.891L509.71 516.875C509.644 516.918 509.598 516.985 509.582 517.063C509.566 517.14 509.582 517.22 509.626 517.285L511.491 520.154C511.58 520.292 511.763 520.332 511.901 520.246L515.047 518.294C515.115 518.25 515.163 518.18 515.179 518.1C515.195 518.02 515.178 517.938 515.131 517.871V517.871Z" fill="black"/>
<path d="M543.536 491.235L541.898 488.899C541.695 488.621 541.31 488.55 541.021 488.737L538.596 490.376C538.314 490.576 538.237 490.962 538.421 491.255L539.922 493.564C540.117 493.848 540.499 493.931 540.793 493.753L543.354 492.146C543.501 492.05 543.602 491.9 543.636 491.729C543.671 491.557 543.635 491.38 543.536 491.235Z" fill="black"/>
<path d="M538.902 494.449L537.264 492.107C537.06 491.825 536.671 491.753 536.38 491.944L533.962 493.584C533.677 493.781 533.597 494.168 533.78 494.462L535.281 496.772C535.475 497.061 535.861 497.147 536.159 496.967L538.72 495.353C538.864 495.258 538.965 495.109 538.999 494.939C539.033 494.769 538.998 494.593 538.902 494.449V494.449Z" fill="black"/>
<path d="M534.28 497.657L532.642 495.321C532.439 495.039 532.049 494.967 531.758 495.158L529.334 496.791C529.051 496.991 528.974 497.377 529.158 497.67L530.66 499.979C530.853 500.269 531.24 500.355 531.537 500.174L534.092 498.561C534.237 498.467 534.339 498.318 534.374 498.148C534.41 497.978 534.376 497.801 534.28 497.657V497.657Z" fill="black"/>
<path d="M529.646 500.864L528.008 498.528C527.805 498.25 527.42 498.179 527.13 498.366L524.706 499.999C524.423 500.198 524.346 500.584 524.53 500.877L526.032 503.213C526.225 503.499 526.607 503.584 526.903 503.408L529.464 501.801C529.618 501.705 529.725 501.55 529.759 501.372C529.794 501.194 529.753 501.01 529.646 500.864Z" fill="black"/>
<path d="M525.252 504.364L523.217 501.463C523.174 501.397 523.106 501.352 523.029 501.338C522.952 501.323 522.872 501.34 522.808 501.385L519.831 503.395C519.696 503.486 519.659 503.668 519.746 503.805L521.612 506.68C521.654 506.747 521.722 506.793 521.799 506.809C521.876 506.825 521.956 506.809 522.021 506.765L525.167 504.813C525.244 504.77 525.297 504.695 525.314 504.608C525.33 504.522 525.307 504.433 525.252 504.364Z" fill="black"/>
<path d="M521.124 507.207L519.09 504.299C518.993 504.168 518.809 504.136 518.674 504.228L515.703 506.232C515.568 506.325 515.53 506.509 515.619 506.648L517.484 509.517C517.573 509.654 517.755 509.695 517.894 509.608L521.04 507.656C521.116 507.613 521.17 507.538 521.186 507.452C521.202 507.365 521.18 507.276 521.124 507.207V507.207Z" fill="black"/>
<path d="M516.535 510.369L514.501 507.461C514.404 507.33 514.22 507.298 514.085 507.39L511.108 509.393C510.975 509.489 510.938 509.67 511.023 509.81L512.895 512.679C512.984 512.816 513.167 512.857 513.305 512.77L516.444 510.818C516.524 510.778 516.58 510.703 516.598 510.616C516.616 510.528 516.593 510.438 516.535 510.369V510.369Z" fill="black"/>
<path d="M512.089 513.466L510.055 510.565C510.01 510.499 509.941 510.454 509.863 510.439C509.785 510.425 509.704 510.442 509.639 510.486L506.662 512.497C506.529 512.59 506.495 512.771 506.584 512.907L508.449 515.776C508.49 515.845 508.557 515.894 508.634 515.911C508.712 515.928 508.793 515.912 508.859 515.867L511.998 513.915C512.078 513.875 512.134 513.8 512.152 513.713C512.17 513.625 512.147 513.535 512.089 513.466Z" fill="black"/>
<path d="M510.685 520.948L508.651 518.046C508.556 517.916 508.375 517.884 508.241 517.975L505.264 519.979C505.198 520.021 505.152 520.089 505.136 520.166C505.12 520.243 505.136 520.323 505.18 520.389L507.045 523.264C507.136 523.399 507.316 523.438 507.455 523.355L510.601 521.404C510.678 521.359 510.731 521.283 510.747 521.195C510.764 521.108 510.741 521.018 510.685 520.948V520.948Z" fill="black"/>
<path d="M506.239 524.032L504.205 521.13C504.161 521.065 504.094 521.02 504.017 521.005C503.94 520.991 503.86 521.008 503.795 521.052L500.818 523.063C500.752 523.105 500.706 523.173 500.69 523.25C500.674 523.327 500.69 523.407 500.734 523.473L502.599 526.342C502.688 526.479 502.871 526.519 503.009 526.433L506.155 524.481C506.231 524.437 506.285 524.363 506.301 524.276C506.317 524.19 506.295 524.1 506.239 524.032Z" fill="black"/>
<path d="M513.22 505.594L511.27 502.861C511.143 502.685 510.898 502.642 510.718 502.764L507.91 504.657C507.822 504.715 507.76 504.807 507.74 504.911C507.719 505.014 507.74 505.122 507.799 505.21L509.554 507.91C509.609 508 509.698 508.064 509.801 508.088C509.904 508.111 510.012 508.091 510.1 508.034L513.071 506.166C513.17 506.113 513.242 506.022 513.271 505.913C513.299 505.804 513.281 505.689 513.22 505.594V505.594Z" fill="black"/>
<path d="M508.774 508.678L506.857 505.945C506.798 505.858 506.706 505.798 506.602 505.778C506.499 505.759 506.391 505.781 506.304 505.841L503.496 507.767C503.409 507.824 503.347 507.914 503.327 508.017C503.306 508.12 503.327 508.227 503.386 508.313L505.141 511.02C505.26 511.202 505.501 511.256 505.687 511.144L508.657 509.276C508.759 509.218 508.83 509.119 508.853 509.004C508.875 508.889 508.847 508.77 508.774 508.678V508.678Z" fill="black"/>
<path d="M504.328 511.762L502.411 509.023C502.283 508.846 502.039 508.803 501.858 508.925L499.05 510.818C498.962 510.877 498.901 510.968 498.88 511.072C498.859 511.176 498.881 511.283 498.94 511.371L500.695 514.071C500.75 514.161 500.839 514.225 500.942 514.249C501.045 514.272 501.153 514.253 501.241 514.195L504.211 512.328C504.305 512.27 504.37 512.177 504.392 512.07C504.414 511.963 504.391 511.851 504.328 511.762Z" fill="black"/>
<path d="M499.941 514.924L497.906 512.015C497.812 511.885 497.63 511.853 497.497 511.944L494.52 513.948C494.384 514.041 494.347 514.225 494.435 514.364L496.301 517.233C496.392 517.367 496.571 517.407 496.71 517.324L499.856 515.373C499.937 515.333 499.994 515.257 500.01 515.169C500.027 515.081 500.001 514.99 499.941 514.924Z" fill="black"/>
<path d="M552.552 484.898L550.79 482.393C550.585 482.113 550.195 482.045 549.906 482.237L543.029 487.058C542.753 487.259 542.679 487.64 542.86 487.93L544.518 490.493C544.614 490.637 544.764 490.736 544.933 490.769C545.103 490.802 545.278 490.766 545.421 490.669L552.402 485.783C552.68 485.575 552.746 485.186 552.552 484.898Z" fill="black"/>
<path d="M507.63 516.453L505.472 513.401C505.428 513.335 505.358 513.29 505.28 513.277C505.201 513.263 505.121 513.282 505.056 513.33L497.633 518.534C497.502 518.625 497.467 518.805 497.555 518.938L499.583 522.08C499.627 522.149 499.697 522.197 499.777 522.212C499.856 522.228 499.939 522.211 500.006 522.165L507.552 516.875C507.69 516.78 507.725 516.591 507.63 516.453V516.453Z" fill="black"/>
<path d="M531.245 493.115L529.256 490.201C529.163 490.068 528.982 490.033 528.846 490.123L512.362 501.261C512.228 501.352 512.19 501.534 512.278 501.671L514.312 504.794C514.356 504.862 514.426 504.91 514.506 504.926C514.585 504.942 514.668 504.925 514.735 504.878L531.167 493.532C531.233 493.487 531.278 493.418 531.292 493.34C531.307 493.262 531.29 493.181 531.245 493.115Z" fill="black"/>
</g>
<path d="M558.897 493.5L557.36 491.258C557.169 490.988 556.804 490.919 556.531 491.102L554.263 492.672C553.995 492.861 553.92 493.23 554.092 493.512L555.501 495.723C555.682 496 556.045 496.083 556.324 495.91L558.726 494.365C558.862 494.274 558.956 494.131 558.988 493.969C559.02 493.806 558.987 493.638 558.897 493.5V493.5Z" fill="#464A5F"/>
<path d="M553.894 496.495L552.359 494.256C552.168 493.989 551.807 493.92 551.536 494.1L549.263 495.666C548.995 495.855 548.92 496.225 549.092 496.508L550.5 498.722C550.681 499 551.043 499.083 551.322 498.91L553.724 497.369C553.861 497.277 553.956 497.133 553.988 496.969C554.02 496.804 553.986 496.634 553.894 496.495V496.495Z" fill="#464A5F"/>
<path d="M549.894 499.496L548.359 497.258C548.168 496.988 547.802 496.919 547.53 497.103L545.263 498.673C544.995 498.862 544.92 499.232 545.092 499.515L546.5 501.727C546.683 502.002 547.045 502.082 547.322 501.908L549.724 500.368C549.861 500.277 549.956 500.133 549.988 499.969C550.02 499.805 549.986 499.634 549.894 499.496V499.496Z" fill="#464A5F"/>
<path d="M544.881 503.483L543.351 501.254C543.161 500.989 542.802 500.921 542.531 501.099L540.267 502.659C540.132 502.752 540.04 502.896 540.01 503.059C539.981 503.222 540.016 503.39 540.109 503.526L541.511 505.725C541.692 506 542.053 506.082 542.331 505.91L544.717 504.375C544.86 504.283 544.958 504.134 544.99 503.965C545.021 503.796 544.981 503.621 544.881 503.483Z" fill="#464A5F"/>
<path d="M540.897 505.495L539.359 503.256C539.168 502.989 538.807 502.92 538.535 503.1L536.259 504.666C535.993 504.857 535.921 505.227 536.094 505.508L537.498 507.722C537.679 508 538.042 508.083 538.322 507.91L540.726 506.363C540.862 506.271 540.956 506.128 540.988 505.965C541.02 505.803 540.987 505.633 540.897 505.495Z" fill="#464A5F"/>
<path d="M536.941 509.767L535.131 507.119C535.092 507.059 535.032 507.018 534.964 507.005C534.895 506.991 534.824 507.007 534.767 507.047L532.12 508.882C532.061 508.921 532.02 508.983 532.005 509.053C531.991 509.124 532.005 509.197 532.044 509.256L533.703 511.875C533.782 512 533.944 512.038 534.068 511.958L536.865 510.177C536.933 510.137 536.981 510.069 536.995 509.99C537.01 509.911 536.99 509.83 536.941 509.767Z" fill="#464A5F"/>
<path d="M530.943 512.765L529.133 510.119C529.093 510.059 529.032 510.018 528.962 510.005C528.893 509.991 528.821 510.007 528.763 510.048L526.12 511.881C526.061 511.92 526.02 511.981 526.005 512.052C525.991 512.122 526.005 512.195 526.044 512.255L527.704 514.877C527.742 514.938 527.802 514.98 527.871 514.994C527.939 515.009 528.011 514.995 528.069 514.954L530.868 513.175C530.935 513.134 530.981 513.065 530.995 512.987C531.01 512.909 530.991 512.828 530.943 512.765V512.765Z" fill="#464A5F"/>
<path d="M527.952 515.781L526.138 513.113C526.053 512.993 525.892 512.964 525.773 513.047L523.118 514.862C522.997 514.948 522.964 515.117 523.043 515.244L524.706 517.877C524.787 518 524.948 518.037 525.072 517.96L527.877 516.169C527.938 516.129 527.981 516.065 527.995 515.992C528.009 515.919 527.994 515.843 527.952 515.781Z" fill="#464A5F"/>
<path d="M522.927 518.744L521.123 516.112C521.039 515.993 520.878 515.964 520.76 516.047L518.12 517.877C518.061 517.917 518.019 517.98 518.005 518.051C517.991 518.122 518.005 518.197 518.045 518.257L519.699 520.877C519.779 521 519.939 521.036 520.062 520.961L522.852 519.178C522.928 519.14 522.981 519.066 522.996 518.981C523.011 518.895 522.985 518.807 522.927 518.744V518.744Z" fill="#464A5F"/>
<path d="M517.941 521.766L516.131 519.119C516.092 519.059 516.032 519.018 515.964 519.005C515.895 518.991 515.824 519.007 515.767 519.047L513.12 520.882C513.061 520.92 513.02 520.982 513.005 521.052C512.991 521.123 513.005 521.196 513.044 521.255L514.703 523.873C514.74 523.935 514.8 523.978 514.868 523.994C514.937 524.009 515.009 523.996 515.068 523.956L517.865 522.175C517.933 522.136 517.981 522.067 517.995 521.989C518.01 521.91 517.99 521.828 517.941 521.766Z" fill="#464A5F"/>
<path d="M512.94 524.768L511.131 522.112C511.046 521.993 510.885 521.964 510.766 522.047L508.118 523.877C507.997 523.962 507.964 524.13 508.043 524.257L509.702 526.877C509.783 527 509.943 527.036 510.067 526.961L512.865 525.178C512.933 525.138 512.981 525.07 512.995 524.991C513.01 524.912 512.99 524.831 512.94 524.768Z" fill="#464A5F"/>
<path d="M508.941 528.766L507.131 526.119C507.092 526.059 507.032 526.018 506.964 526.005C506.895 525.991 506.824 526.007 506.767 526.047L504.12 527.882C504.061 527.92 504.02 527.982 504.005 528.052C503.991 528.123 504.005 528.196 504.044 528.255L505.703 530.873C505.74 530.935 505.8 530.978 505.868 530.994C505.937 531.009 506.009 530.996 506.068 530.956L508.865 529.175C508.933 529.136 508.981 529.067 508.995 528.989C509.01 528.91 508.99 528.828 508.941 528.766V528.766Z" fill="#464A5F"/>
<path d="M555.897 488.498L554.359 486.256C554.168 485.989 553.807 485.921 553.535 486.1L551.259 487.67C550.993 487.861 550.921 488.23 551.094 488.511L552.498 490.723C552.679 491 553.042 491.083 553.322 490.91L555.726 489.365C555.862 489.273 555.956 489.13 555.988 488.968C556.02 488.805 555.987 488.636 555.897 488.498V488.498Z" fill="#464A5F"/>
<path d="M549.894 479.497L548.357 477.256C548.166 476.989 547.805 476.92 547.534 477.1L545.259 478.667C544.993 478.858 544.921 479.228 545.094 479.509L546.503 481.725C546.684 481.999 547.042 482.081 547.32 481.912L549.723 480.371C549.861 480.279 549.956 480.135 549.988 479.97C550.02 479.806 549.986 479.635 549.894 479.497Z" fill="#464A5F"/>
<path d="M551.9 492.509L550.361 490.256C550.17 489.989 549.808 489.92 549.537 490.1L547.259 491.667C546.993 491.858 546.921 492.228 547.094 492.509L548.505 494.725C548.686 494.999 549.045 495.081 549.323 494.912L551.729 493.371C552.007 493.18 552.084 492.796 551.9 492.509Z" fill="#464A5F"/>
<path d="M546.886 495.494L545.369 493.256C545.178 492.989 544.816 492.921 544.543 493.1L542.262 494.665C541.992 494.857 541.919 495.231 542.097 495.513L543.504 497.727C543.687 498.002 544.051 498.082 544.329 497.908L546.739 496.368C546.873 496.272 546.964 496.126 546.991 495.962C547.019 495.798 546.981 495.63 546.886 495.494Z" fill="#464A5F"/>
<path d="M542.897 498.5L541.36 496.258C541.169 495.988 540.804 495.919 540.531 496.102L538.263 497.672C537.995 497.861 537.92 498.23 538.092 498.512L539.501 500.723C539.682 501 540.045 501.083 540.324 500.91L542.726 499.365C542.862 499.274 542.956 499.131 542.988 498.969C543.02 498.806 542.987 498.638 542.897 498.5Z" fill="#464A5F"/>
<path d="M544.9 482.509L543.361 480.256C543.17 479.989 542.808 479.92 542.537 480.1L540.259 481.667C539.993 481.858 539.921 482.228 540.094 482.509L541.505 484.725C541.686 484.999 542.045 485.081 542.323 484.912L544.729 483.371C545.007 483.18 545.084 482.796 544.9 482.509V482.509Z" fill="#464A5F"/>
<path d="M540.897 486.498L539.36 484.256C539.17 483.989 538.809 483.921 538.537 484.1L536.263 485.67C535.995 485.859 535.92 486.229 536.092 486.511L537.501 488.723C537.682 489 538.045 489.083 538.324 488.91L540.726 487.365C540.862 487.273 540.956 487.13 540.988 486.968C541.02 486.805 540.987 486.636 540.897 486.498Z" fill="#464A5F"/>
<path d="M536.896 489.494L535.36 487.258C535.169 486.988 534.803 486.919 534.531 487.102L532.263 488.665C531.995 488.854 531.92 489.224 532.092 489.506L533.5 491.723C533.681 492 534.044 492.083 534.323 491.91L536.719 490.365C536.857 490.275 536.954 490.132 536.987 489.968C537.021 489.803 536.988 489.633 536.896 489.494Z" fill="#464A5F"/>
<path d="M536.902 501.503L535.363 499.257C535.172 498.989 534.81 498.92 534.538 499.1L532.259 500.658C531.993 500.85 531.921 501.221 532.094 501.503L533.505 503.724C533.687 503.999 534.046 504.082 534.324 503.912L536.731 502.36C537.006 502.17 537.082 501.789 536.902 501.503Z" fill="#464A5F"/>
<path d="M532.88 504.48L531.349 502.254C531.159 501.989 530.799 501.921 530.528 502.099L528.262 503.686C527.995 503.874 527.921 504.243 528.092 504.523L529.495 506.724C529.676 507 530.037 507.082 530.316 506.91L532.71 505.379C532.855 505.288 532.957 505.139 532.989 504.968C533.021 504.797 532.982 504.62 532.88 504.48Z" fill="#464A5F"/>
<path d="M528.935 508.766L527.119 506.119C527.08 506.059 527.02 506.018 526.951 506.005C526.882 505.991 526.811 506.007 526.754 506.047L524.12 507.882C524.061 507.92 524.02 507.982 524.005 508.052C523.991 508.123 524.005 508.196 524.045 508.255L525.71 510.873C525.747 510.935 525.806 510.978 525.875 510.994C525.944 511.009 526.016 510.996 526.075 510.956L528.883 509.175C528.946 509.131 528.988 509.061 528.998 508.983C529.008 508.905 528.985 508.826 528.935 508.766V508.766Z" fill="#464A5F"/>
<path d="M523.939 511.767L522.131 509.113C522.045 508.993 521.882 508.964 521.761 509.048L519.116 510.877C518.998 510.963 518.965 511.129 519.041 511.257L520.704 513.875C520.783 514 520.945 514.038 521.068 513.958L523.858 512.177C523.929 512.14 523.979 512.072 523.995 511.992C524.011 511.912 523.99 511.83 523.939 511.767V511.767Z" fill="#464A5F"/>
<path d="M519.934 513.768L518.126 511.112C518.042 510.993 517.881 510.964 517.763 511.047L515.118 512.877C514.997 512.962 514.964 513.13 515.043 513.257L516.7 515.877C516.781 516 516.94 516.036 517.064 515.961L519.859 514.178C519.93 514.142 519.981 514.073 519.996 513.992C520.01 513.912 519.988 513.829 519.934 513.768V513.768Z" fill="#464A5F"/>
<path d="M514.931 517.767L513.136 515.119C513.097 515.059 513.036 515.018 512.968 515.005C512.899 514.991 512.828 515.007 512.771 515.047L510.118 516.882C509.997 516.965 509.964 517.132 510.042 517.256L511.705 519.875C511.784 520 511.946 520.038 512.07 519.958L514.873 518.177C514.941 518.136 514.986 518.066 514.997 517.986C515.009 517.907 514.984 517.826 514.931 517.767V517.767Z" fill="#464A5F"/>
<path d="M543.897 490.502L542.365 488.258C542.174 487.988 541.808 487.919 541.535 488.103L539.259 489.673C538.993 489.864 538.921 490.234 539.094 490.515L540.504 492.727C540.687 493.002 541.05 493.082 541.328 492.908L543.726 491.368C543.862 491.277 543.956 491.134 543.988 490.972C544.02 490.809 543.987 490.64 543.897 490.502Z" fill="#464A5F"/>
<path d="M538.897 494.499L537.359 492.26C537.17 491.991 536.808 491.92 536.535 492.098L534.259 493.669C533.993 493.861 533.921 494.231 534.094 494.511L535.504 496.725C535.685 496.999 536.043 497.081 536.322 496.912L538.726 495.366C538.862 495.274 538.956 495.131 538.988 494.969C539.02 494.806 538.987 494.637 538.897 494.499V494.499Z" fill="#464A5F"/>
<path d="M534.884 497.494L533.323 495.259C533.132 494.988 532.765 494.919 532.491 495.103L530.264 496.663C529.995 496.853 529.92 497.224 530.092 497.506L531.506 499.722C531.688 500 532.052 500.083 532.332 499.91L534.743 498.368C534.876 498.271 534.965 498.125 534.992 497.96C535.018 497.796 534.979 497.628 534.884 497.494V497.494Z" fill="#464A5F"/>
<path d="M529.894 500.497L528.357 498.256C528.166 497.989 527.805 497.92 527.534 498.1L525.259 499.667C524.993 499.858 524.921 500.228 525.094 500.509L526.503 502.725C526.684 502.999 527.042 503.081 527.32 502.912L529.723 501.371C529.861 501.279 529.956 501.135 529.988 500.97C530.02 500.806 529.986 500.635 529.894 500.497Z" fill="#464A5F"/>
<path d="M525.942 504.765L524.134 502.119C524.094 502.059 524.032 502.018 523.963 502.005C523.894 501.991 523.822 502.007 523.764 502.048L521.117 503.881C520.997 503.964 520.964 504.13 521.042 504.255L522.701 506.877C522.739 506.938 522.8 506.98 522.87 506.995C522.939 507.009 523.011 506.994 523.07 506.954L525.861 505.174C525.93 505.136 525.979 505.068 525.995 504.989C526.01 504.91 525.991 504.828 525.942 504.765Z" fill="#464A5F"/>
<path d="M520.935 506.768L519.12 504.119C519.082 504.059 519.021 504.018 518.952 504.005C518.884 503.991 518.813 504.007 518.755 504.047L516.118 505.877C515.997 505.962 515.964 506.131 516.043 506.257L517.706 508.877C517.787 509 517.947 509.036 518.071 508.961L520.877 507.178C520.942 507.136 520.986 507.066 520.997 506.987C521.008 506.908 520.985 506.828 520.935 506.768Z" fill="#464A5F"/>
<path d="M516.94 510.767L515.131 508.113C515.044 507.993 514.881 507.964 514.76 508.048L512.118 509.877C511.997 509.962 511.964 510.13 512.043 510.257L513.702 512.875C513.781 513 513.943 513.038 514.067 512.958L516.865 511.177C516.933 511.137 516.981 511.069 516.995 510.99C517.01 510.911 516.99 510.83 516.94 510.767Z" fill="#464A5F"/>
<path d="M512.943 512.765L511.133 510.119C511.093 510.059 511.032 510.018 510.962 510.005C510.893 509.991 510.821 510.007 510.763 510.048L508.12 511.881C508.061 511.92 508.02 511.981 508.005 512.052C507.991 512.122 508.005 512.195 508.044 512.255L509.704 514.877C509.742 514.938 509.802 514.98 509.871 514.994C509.939 515.009 510.011 514.995 510.069 514.954L512.868 513.175C512.935 513.134 512.981 513.065 512.995 512.987C513.01 512.909 512.991 512.828 512.943 512.765V512.765Z" fill="#464A5F"/>
<path d="M510.939 520.768L509.132 518.113C509.045 517.993 508.883 517.964 508.762 518.048L506.118 519.877C505.997 519.963 505.964 520.131 506.043 520.258L507.7 522.877C507.78 523 507.94 523.036 508.064 522.961L510.858 521.178C510.929 521.141 510.979 521.073 510.995 520.993C511.011 520.914 510.99 520.831 510.939 520.768Z" fill="#464A5F"/>
<path d="M505.939 523.766L504.132 521.119C504.092 521.059 504.031 521.018 503.961 521.005C503.892 520.991 503.82 521.007 503.762 521.048L501.117 522.882C500.997 522.965 500.964 523.131 501.042 523.256L502.7 525.873C502.737 525.934 502.798 525.978 502.867 525.994C502.937 526.009 503.01 525.996 503.069 525.956L505.858 524.175C505.929 524.138 505.979 524.07 505.995 523.991C506.011 523.911 505.99 523.828 505.939 523.766V523.766Z" fill="#464A5F"/>
<path d="M512.94 504.689L511.209 502.155C511.094 501.991 510.873 501.951 510.711 502.064L508.159 503.816C507.995 503.931 507.951 504.158 508.059 504.328L509.643 506.833C509.753 507.003 509.974 507.051 510.142 506.941L512.817 505.213C512.904 505.163 512.967 505.078 512.99 504.979C513.013 504.88 512.995 504.775 512.94 504.689Z" fill="#464A5F"/>
<path d="M508.935 508.689L507.2 506.161C507.146 506.08 507.063 506.024 506.969 506.006C506.876 505.988 506.779 506.009 506.7 506.065L504.159 507.822C503.996 507.934 503.951 508.159 504.059 508.327L505.647 510.831C505.757 511 505.977 511.05 506.147 510.945L508.835 509.218C508.918 509.162 508.974 509.074 508.993 508.975C509.012 508.875 508.991 508.772 508.935 508.689V508.689Z" fill="#464A5F"/>
<path d="M504.942 511.689L503.185 509.154C503.073 508.991 502.854 508.951 502.693 509.064L500.158 510.816C499.995 510.931 499.951 511.158 500.059 511.328L501.64 513.833C501.749 514.003 501.97 514.051 502.137 513.941L504.813 512.213C504.901 512.164 504.965 512.08 504.989 511.98C505.014 511.881 504.996 511.775 504.942 511.689V511.689Z" fill="#464A5F"/>
<path d="M499.941 514.767L498.131 512.113C498.045 511.993 497.882 511.964 497.761 512.048L495.114 513.877C494.995 513.964 494.965 514.131 495.044 514.257L496.703 516.875C496.782 517 496.944 517.038 497.068 516.958L499.865 515.177C499.933 515.137 499.981 515.069 499.995 514.99C500.01 514.911 499.99 514.83 499.941 514.767Z" fill="#464A5F"/>
<path d="M553.895 484.888L552.143 482.276C551.936 481.985 551.543 481.913 551.251 482.114L544.271 487.128C543.992 487.337 543.917 487.733 544.1 488.035L545.78 490.701C545.877 490.85 546.028 490.953 546.199 490.988C546.37 491.022 546.547 490.985 546.692 490.884L553.731 485.802C554.012 485.59 554.084 485.189 553.895 484.888Z" fill="#464A5F"/>
<path d="M507.946 516.199L505.826 513.13C505.782 513.063 505.714 513.018 505.637 513.004C505.559 512.991 505.48 513.01 505.417 513.058L498.125 518.294C497.995 518.387 497.961 518.57 498.049 518.706L500.047 521.861C500.09 521.93 500.159 521.978 500.237 521.994C500.315 522.01 500.397 521.993 500.462 521.946L507.876 516.625C508.008 516.526 508.04 516.337 507.946 516.199V516.199Z" fill="#464A5F"/>
<path d="M531.936 493.06L529.99 490.134C529.897 489.997 529.714 489.959 529.575 490.048L513.134 501.291C513.068 501.334 513.022 501.402 513.006 501.48C512.99 501.558 513.006 501.639 513.05 501.705L515.073 504.86C515.117 504.93 515.187 504.978 515.266 504.994C515.346 505.01 515.428 504.993 515.495 504.946L531.891 493.48C532.016 493.376 532.037 493.189 531.936 493.06Z" fill="#464A5F"/>
<path opacity="0.1" d="M532.706 482.62L523.738 469.716C523.222 468.97 522.194 468.776 521.436 469.281L496.734 485.703C496.367 485.949 496.114 486.33 496.03 486.761C495.946 487.192 496.039 487.639 496.289 488.002L505.43 501.275C505.678 501.639 506.063 501.89 506.499 501.971C506.935 502.053 507.386 501.959 507.751 501.709L532.28 484.906C532.643 484.659 532.893 484.28 532.973 483.851C533.052 483.422 532.956 482.979 532.706 482.62Z" fill="black"/>
<path d="M532.701 482.619L523.728 469.714C523.209 468.971 522.184 468.777 521.425 469.279L496.742 485.715C496.372 485.959 496.116 486.339 496.031 486.771C495.946 487.203 496.039 487.65 496.289 488.014L505.409 501.275C505.658 501.639 506.043 501.89 506.479 501.971C506.915 502.053 507.367 501.959 507.732 501.709L532.289 484.905C532.65 484.656 532.897 484.275 532.974 483.846C533.052 483.418 532.953 482.976 532.701 482.619Z" fill="#939498"/>
<path d="M586.509 503.253L567.849 497L508 538.768L526.523 544.832C527.536 545.164 528.645 544.999 529.518 544.386L586.679 504.453C586.907 504.318 587.031 504.059 586.993 503.796C586.956 503.534 586.765 503.319 586.509 503.253V503.253Z" fill="#1B51E5"/>
</svg>
