<svg width="49" height="49" fill="none" xmlns="http://www.w3.org/2000/svg"><path opacity=".15" d="M24 41c9.389 0 17-7.611 17-17S33.389 7 24 7 7 14.611 7 24s7.611 17 17 17Z" fill="#fff"/><path opacity=".4" d="M10.502 21A10.505 10.505 0 0 1 3.07 3.075c4.102-4.1 10.75-4.1 14.853 0a10.498 10.498 0 0 1 0 14.853A10.412 10.412 0 0 1 10.502 21ZM38.504 49a10.5 10.5 0 1 1 7.416-3.07A10.432 10.432 0 0 1 38.504 49Z" fill="#fff"/><path d="M10.485 48.98a10.475 10.475 0 0 1-9.683-6.45A10.456 10.456 0 0 1 3.06 31.125c.457-.445.954-.848 1.485-1.204l.513-.326c.36-.213.732-.406 1.125-.592.2-.086.4-.18.62-.26.408-.148.826-.27 1.251-.365l.266-.073c.046-.017.093-.03.14-.04l2.371-.173c.306 0 .666.06.992.106h1.226a15.324 15.324 0 0 0 10.86-4.656 15.206 15.206 0 0 0 4.356-10.957v-.226a2.449 2.449 0 0 1-.04-.386v-.32l-.087-.305c0-.186-.047-.386-.053-.579l.16-2.195V8.48c0-.054.1-.346.1-.346.1-.451.23-.896.386-1.33.073-.2.166-.4.26-.6.174-.393.374-.776.599-1.144v-.06c.093-.152.18-.305.286-.452a9.988 9.988 0 0 1 1.192-1.47c4.097-4.1 10.745-4.106 14.85-.013 4.104 4.093 4.11 10.734.013 14.834-.455.442-.95.84-1.478 1.191-.16.113-.3.193-.44.28l-.08.046c-.386.226-.759.426-1.118.592-.213.093-.407.186-.606.26-.42.152-.85.279-1.286.379-.092.02-.183.044-.273.073l-.166.046-2.324.16c-.293 0-.606-.053-.932-.093h-1.266c-8.493.124-15.293 7.075-15.222 15.56V36.627c.018.116.029.234.033.352 0 .127 0 .246.033.366.034.12 0 .226.04.346.023.172.037.345.04.519l-.166 2.282c-.013.06-.028.12-.047.18l-.06.206a9.88 9.88 0 0 1-.38 1.33c-.073.2-.172.406-.266.612-.169.384-.358.76-.566 1.124a6.176 6.176 0 0 1-.32.512 9.878 9.878 0 0 1-1.205 1.484A10.413 10.413 0 0 1 10.485 49v-.02Z" fill="#fff"/></svg>