<svg width="30" height="30" viewBox="0 0 30 30" fill="none" xmlns="http://www.w3.org/2000/svg">
<path d="M14.974 14.2252V15.7748C14.974 15.7748 16.4675 15.7728 17.0755 15.7728C16.7462 16.7775 16.2342 17.3246 14.974 17.3246C13.6987 17.3246 12.7034 16.2838 12.7034 15C12.7034 13.7162 13.6987 12.6754 14.974 12.6754C15.6483 12.6754 16.0838 12.914 16.4832 13.2465C16.8029 12.9247 16.7763 12.8788 17.5897 12.1055C16.8992 11.4727 15.9813 11.087 14.974 11.087C12.8272 11.087 11.087 12.8389 11.087 15C11.087 17.1611 12.8272 18.913 14.974 18.913C18.1829 18.913 18.9672 16.1003 18.7072 14.2252H14.974Z" fill="black"/>
</svg>
