<svg width="30" height="30" viewBox="0 0 30 30" fill="none" xmlns="http://www.w3.org/2000/svg">
<path d="M19.0761 12.4346C18.8315 12.8015 18.5335 13.1148 18.1819 13.3747V13.604C18.1819 14.2154 18.0672 14.8192 17.838 15.4152C17.6087 16.0114 17.2839 16.5616 16.8635 17.0661C16.4432 17.5705 15.9006 17.9755 15.2356 18.2812C14.5707 18.587 13.8409 18.7398 13.046 18.7398C12.0372 18.7398 11.1125 18.4723 10.2717 17.9373C10.4093 17.9526 10.5545 17.9603 10.7074 17.9603C11.548 17.9603 12.2971 17.7004 12.9543 17.1807C12.5569 17.1807 12.2053 17.0622 11.8996 16.8253C11.5939 16.5884 11.3799 16.2865 11.2576 15.9197C11.3647 15.9502 11.4793 15.9655 11.6016 15.9655C11.7697 15.9655 11.9302 15.9426 12.083 15.8967C11.6551 15.805 11.3035 15.5948 11.0284 15.2662C10.7532 14.9376 10.6156 14.5593 10.6156 14.1313V14.1083C10.8755 14.246 11.1507 14.3223 11.4411 14.3377C10.9061 13.9708 10.6386 13.4663 10.6386 12.8244C10.6386 12.5034 10.7227 12.1977 10.8908 11.9073C11.8538 13.0995 13.0919 13.7339 14.6051 13.8103C14.5746 13.6727 14.5593 13.5352 14.5593 13.3976C14.5593 12.8932 14.735 12.4652 15.0866 12.1136C15.4382 11.7621 15.8662 11.5863 16.3706 11.5863C16.8903 11.5863 17.3259 11.7773 17.6775 12.1595C18.0902 12.083 18.4723 11.9378 18.8239 11.7239C18.6863 12.1518 18.4265 12.4805 18.0443 12.7098C18.3959 12.6639 18.7398 12.5722 19.0761 12.4346Z" fill="black"/>
</svg>
